<?xml version="1.0" encoding="utf-8"?>
<!-- Generator: Adobe Illustrator 23.0.3, SVG Export Plug-In . SVG Version: 6.00 Build 0)  -->
<svg version="1.1" id="Слой_1" xmlns="http://www.w3.org/2000/svg" xmlns:xlink="http://www.w3.org/1999/xlink" x="0px" y="0px"
	 viewBox="0 0 24 24" style="enable-background:new 0 0 24 24;" xml:space="preserve">
<style type="text/css">
	.st0{fill:#828A99;}
	.st1{display:none;fill:#FFFFFF;stroke:#A8ADB8;stroke-linecap:round;stroke-miterlimit:10;}
	.st2{display:none;fill:none;stroke:#A8ADB8;stroke-linecap:round;stroke-miterlimit:10;}
	.st3{fill:none;stroke:#828A99;stroke-width:1.5;stroke-linecap:round;stroke-miterlimit:10;}
</style>
<g>
	<path class="st0" d="M11.14,4.6L11.14,4.6c1.77,0,3.42,0.7,4.66,1.97c2.5,2.57,2.44,6.69-0.13,9.19c-1.22,1.19-2.83,1.84-4.53,1.84
		c-1.77,0-3.43-0.7-4.66-1.97c-2.5-2.57-2.44-6.69,0.13-9.19C7.83,5.26,9.44,4.6,11.14,4.6 M11.14,2.6C9,2.6,6.86,3.4,5.21,5.01
		c-3.36,3.27-3.44,8.65-0.17,12.02c1.67,1.71,3.88,2.57,6.09,2.57c2.13,0,4.27-0.8,5.92-2.4c3.36-3.27,3.44-8.65,0.17-12.02
		C15.56,3.46,13.35,2.6,11.14,2.6L11.14,2.6z"/>
</g>
<g>
	<path class="st0" d="M17.21,15.92c-0.25,0-0.5,0.09-0.7,0.28l-0.44,0.43c-0.39,0.38-0.4,1.02-0.02,1.41l4.64,4.78
		c0.2,0.2,0.46,0.3,0.72,0.3c0.25,0,0.5-0.09,0.7-0.28l0.44-0.43c0.39-0.38,0.4-1.02,0.02-1.41l-4.64-4.78
		C17.73,16.03,17.47,15.92,17.21,15.92L17.21,15.92z"/>
</g>
<path class="st1" d="M9.07,14.37c1.16,1.22,2.89,1.55,4.36,0.97"/>
<path class="st2" d="M7.85,12.04c0.09,0.32,0.24,0.62,0.42,0.92"/>
<path class="st3" d="M10.26,16c-1.25-0.15-2.34-0.8-3.09-1.73"/>
<path class="st3" d="M6.17,11.91c-0.02-0.19-0.04-0.39-0.04-0.59c0-0.2,0.01-0.4,0.04-0.59"/>
</svg>
