<?xml version="1.0" encoding="utf-8"?>
<!-- Generator: Adobe Illustrator 23.0.3, SVG Export Plug-In . SVG Version: 6.00 Build 0)  -->
<svg version="1.1" id="Слой_1" xmlns="http://www.w3.org/2000/svg" xmlns:xlink="http://www.w3.org/1999/xlink" x="0px" y="0px"
	 viewBox="0 0 24 24" style="enable-background:new 0 0 24 24;" xml:space="preserve">
<style type="text/css">
	.st0{fill:#A8ADB8;}
	.st1{fill:#FFFFFF;}
	.st2{display:none;fill:#FFFFFF;stroke:#A8ADB8;stroke-linecap:round;stroke-miterlimit:10;}
	.st3{display:none;fill:none;stroke:#A8ADB8;stroke-linecap:round;stroke-miterlimit:10;}
	.st4{fill:none;stroke:#A8ADB8;stroke-linecap:round;stroke-miterlimit:10;}
</style>
<g>
	<path class="st0" d="M11.5,6L11.5,6c1.5,0,2.9,0.59,3.94,1.67c2.11,2.17,2.06,5.66-0.11,7.78c-1.03,1-2.39,1.56-3.83,1.56
		c-1.5,0-2.9-0.59-3.94-1.67C6.53,14.28,5.98,12.89,6,11.42c0.02-1.47,0.61-2.84,1.67-3.87C8.7,6.55,10.06,6,11.5,6 M11.5,5
		C9.87,5,8.23,5.61,6.97,6.84c-2.57,2.5-2.63,6.62-0.13,9.19C8.11,17.34,9.81,18,11.5,18c1.63,0,3.27-0.61,4.53-1.84
		c2.57-2.5,2.63-6.62,0.13-9.19C14.89,5.66,13.19,5,11.5,5L11.5,5z"/>
</g>
<g>
	<path class="st1" d="M19.37,20.1c-0.14,0-0.26-0.05-0.36-0.15l-3.23-3.32c-0.19-0.2-0.19-0.51,0.01-0.71
		c0.09-0.09,0.22-0.14,0.35-0.14c0.14,0,0.26,0.05,0.36,0.15l3.23,3.32c0.19,0.2,0.19,0.51-0.01,0.71
		C19.62,20.05,19.5,20.1,19.37,20.1z"/>
	<path class="st0" d="M16.14,15.29l0,1l3.23,3.32l-3.23-3.32c0,0,0,0,0,0L16.14,15.29 M16.14,15.29c-0.25,0-0.5,0.09-0.7,0.28h0
		c-0.39,0.38-0.4,1.02-0.02,1.41l3.23,3.32c0.2,0.2,0.46,0.3,0.72,0.3c0.25,0,0.5-0.09,0.7-0.28h0c0.39-0.38,0.4-1.02,0.02-1.41
		l-3.23-3.32C16.66,15.39,16.4,15.29,16.14,15.29L16.14,15.29z"/>
</g>
<path class="st2" d="M9.07,14.37c1.16,1.22,2.89,1.55,4.36,0.97"/>
<path class="st3" d="M7.85,12.04c0.09,0.32,0.24,0.62,0.42,0.92"/>
<path class="st4" d="M11,15.47C9.94,15.34,9.01,14.79,8.38,14"/>
<path class="st4" d="M7.53,12c-0.02-0.16-0.03-0.33-0.03-0.5s0.01-0.34,0.03-0.5"/>
</svg>
