<?xml version="1.0" encoding="utf-8"?>
<!-- Generator: Adobe Illustrator 23.0.3, SVG Export Plug-In . SVG Version: 6.00 Build 0)  -->
<svg version="1.1" id="Слой_1" xmlns="http://www.w3.org/2000/svg" xmlns:xlink="http://www.w3.org/1999/xlink" x="0px" y="0px"
	 viewBox="0 0 24 24" style="enable-background:new 0 0 24 24;" xml:space="preserve">
<style type="text/css">
	.st0{fill:#828A99;}
	.st1{display:none;fill:none;stroke:#828A99;stroke-width:1.25;stroke-linecap:round;stroke-miterlimit:10;}
	.st2{fill:none;stroke:#828A99;stroke-linecap:round;stroke-miterlimit:10;}
</style>
<g>
	<path class="st0" d="M11.31,5.73L11.31,5.73c1.52,0,2.93,0.6,3.99,1.69c1.04,1.07,1.59,2.47,1.57,3.96
		c-0.02,1.49-0.62,2.87-1.68,3.91c-1.04,1.02-2.42,1.57-3.88,1.57c-1.52,0-2.93-0.6-3.99-1.69c-1.04-1.07-1.59-2.47-1.57-3.96
		C5.77,9.73,6.37,8.34,7.44,7.3C8.48,6.29,9.86,5.73,11.31,5.73 M11.31,3.73c-1.9,0-3.8,0.71-5.27,2.14c-3,2.91-3.06,7.7-0.15,10.7
		c1.48,1.53,3.45,2.29,5.42,2.29c1.9,0,3.8-0.71,5.27-2.14c3-2.91,3.06-7.7,0.15-10.7C15.25,4.5,13.28,3.73,11.31,3.73L11.31,3.73z"
		/>
</g>
<g>
	<path class="st0" d="M16.72,15.63c-0.25,0-0.5,0.09-0.7,0.28l-0.23,0.23c-0.39,0.38-0.4,1.02-0.02,1.41l3.98,4.09
		c0.2,0.2,0.46,0.3,0.72,0.3c0.25,0,0.5-0.09,0.7-0.28l0.23-0.23c0.39-0.38,0.4-1.02,0.02-1.41l-3.98-4.09
		C17.24,15.73,16.98,15.63,16.72,15.63L16.72,15.63z"/>
</g>
<path class="st1" d="M10,14.98c-0.79-0.1-1.48-0.51-1.95-1.1"/>
<path class="st1" d="M7.41,12.39c-0.01-0.12-0.02-0.25-0.02-0.37c0-0.13,0.01-0.25,0.02-0.37"/>
<path class="st2" d="M8.59,14.12c0.16,0.18,0.35,0.33,0.54,0.48c0.68,0.51,1.44,0.81,2.22,0.9"/>
<path class="st2" d="M7.49,12.27c-0.11-0.32-0.17-0.65-0.2-0.98"/>
</svg>
