<?xml version="1.0" encoding="utf-8"?>
<!-- Generator: Adobe Illustrator 23.0.3, SVG Export Plug-In . SVG Version: 6.00 Build 0)  -->
<svg version="1.1" id="Слой_1" xmlns="http://www.w3.org/2000/svg" xmlns:xlink="http://www.w3.org/1999/xlink" x="0px" y="0px"
	 viewBox="0 0 24 24" style="enable-background:new 0 0 24 24;" xml:space="preserve">
<style type="text/css">
	.st0{fill:#A8ADB8;}
	.st1{fill:#FFFFFF;}
	.st2{display:none;fill:#FFFFFF;stroke:#A8ADB8;stroke-linecap:round;stroke-miterlimit:10;}
	.st3{display:none;fill:none;stroke:#A8ADB8;stroke-linecap:round;stroke-miterlimit:10;}
	.st4{fill:none;stroke:#A8ADB8;stroke-linecap:round;stroke-miterlimit:10;}
</style>
<g>
	<path class="st0" d="M11.5,7L11.5,7c1.23,0,2.37,0.48,3.23,1.36c1.73,1.78,1.69,4.63-0.09,6.36C13.79,15.55,12.68,16,11.5,16
		c-1.23,0-2.37-0.48-3.23-1.36c-0.84-0.86-1.29-2-1.27-3.2c0.02-1.2,0.5-2.33,1.36-3.16C9.21,7.45,10.32,7,11.5,7 M11.5,5
		C9.87,5,8.23,5.61,6.97,6.84c-2.57,2.5-2.63,6.62-0.13,9.19C8.11,17.34,9.81,18,11.5,18c1.63,0,3.27-0.61,4.53-1.84
		c2.57-2.5,2.63-6.62,0.13-9.19C14.89,5.66,13.19,5,11.5,5L11.5,5z"/>
</g>
<g>
	<polygon class="st1" points="19.36,19.6 16.14,16.29 19.36,19.6 	"/>
	<path class="st0" d="M16.14,15.29c-0.25,0-0.5,0.09-0.7,0.28h0c-0.39,0.38-0.4,1.02-0.02,1.41l3.23,3.32c0.2,0.2,0.46,0.3,0.72,0.3
		c0.25,0,0.5-0.09,0.7-0.28h0c0.39-0.38,0.4-1.02,0.02-1.41l-3.23-3.32C16.66,15.39,16.4,15.29,16.14,15.29L16.14,15.29z"/>
</g>
<path class="st2" d="M9.07,14.37c1.16,1.22,2.89,1.55,4.36,0.97"/>
<path class="st3" d="M7.85,12.04c0.09,0.32,0.24,0.62,0.42,0.92"/>
<path class="st4" d="M11,14.19c-0.76-0.09-1.42-0.49-1.87-1.05"/>
<path class="st4" d="M8.52,11.71C8.51,11.6,8.5,11.48,8.5,11.36c0-0.12,0.01-0.24,0.02-0.36"/>
</svg>
